HIERARCHY
ROOT joint_0
{
	OFFSET 0.000000 0.000000 0.000000
	CHANNELS 6 Xposition Yposition Zposition Zrotation Yrotation Xrotation 
	JOINT joint_1
	{
		OFFSET 14.113007 -2.961990 123.953979
		CHANNELS 3 Zrotation Yrotation Xrotation
		JOINT joint_2
		{
			OFFSET 0.764000 -2.434006 113.871948
			CHANNELS 3 Zrotation Yrotation Xrotation
			JOINT joint_3
			{
				OFFSET 0.186996 -2.169998 113.753052
				CHANNELS 3 Zrotation Yrotation Xrotation
				JOINT joint_4
				{
					OFFSET 16.096001 -2.720001 160.853027
					CHANNELS 3 Zrotation Yrotation Xrotation
					JOINT joint_5
					{
						OFFSET 34.392006 -0.188995 92.567017
						CHANNELS 3 Zrotation Yrotation Xrotation
						End Site
						{
							OFFSET 0.000000 0.000000 0.000000
						}
					}
				}
				JOINT joint_6
				{
					OFFSET 9.183998 -36.684006 89.597046
					CHANNELS 3 Zrotation Yrotation Xrotation
					JOINT joint_7
					{
						OFFSET 0.486000 -164.365997 -28.984009
						CHANNELS 3 Zrotation Yrotation Xrotation
						JOINT joint_8
						{
							OFFSET 38.899002 -34.967010 -291.651978
							CHANNELS 3 Zrotation Yrotation Xrotation
							JOINT joint_9
							{
								OFFSET 41.714005 -45.890991 -258.857056
								CHANNELS 3 Zrotation Yrotation Xrotation
								End Site
								{
									OFFSET 0.000000 0.000000 0.000000
								}
							}
						}
					}
				}
				JOINT joint_10
				{
					OFFSET 8.867004 33.650002 90.817993
					CHANNELS 3 Zrotation Yrotation Xrotation
					JOINT joint_11
					{
						OFFSET 0.018997 164.299999 -29.368042
						CHANNELS 3 Zrotation Yrotation Xrotation
						JOINT joint_12
						{
							OFFSET 29.440994 30.887997 -293.216919
							CHANNELS 3 Zrotation Yrotation Xrotation
							JOINT joint_13
							{
								OFFSET 46.174011 54.490005 -256.422058
								CHANNELS 3 Zrotation Yrotation Xrotation
								End Site
								{
									OFFSET 0.000000 0.000000 0.000000
								}
							}
						}
					}
				}
			}
		}
	}
	JOINT joint_14
	{
		OFFSET -2.264000 -89.466995 -116.150024
		CHANNELS 3 Zrotation Yrotation Xrotation
		JOINT joint_15
		{
			OFFSET -16.400993 -17.452988 -493.781982
			CHANNELS 3 Zrotation Yrotation Xrotation
			JOINT joint_16
			{
				OFFSET -50.497004 -13.404022 -424.754013
				CHANNELS 3 Zrotation Yrotation Xrotation
				JOINT joint_17
				{
					OFFSET 198.546007 -19.341003 -89.309000
					CHANNELS 3 Zrotation Yrotation Xrotation
					End Site
					{
						OFFSET 0.000000 0.000000 0.000000
					}
				}
			}
		}
	}
	JOINT joint_18
	{
		OFFSET -0.867996 96.016006 -110.817993
		CHANNELS 3 Zrotation Yrotation Xrotation
		JOINT joint_19
		{
			OFFSET -10.130997 24.658998 -493.645020
			CHANNELS 3 Zrotation Yrotation Xrotation
			JOINT joint_20
			{
				OFFSET -48.871004 19.434999 -424.714005
				CHANNELS 3 Zrotation Yrotation Xrotation
				JOINT joint_21
				{
					OFFSET 195.579996 24.926001 -94.327003
					CHANNELS 3 Zrotation Yrotation Xrotation
					End Site
					{
						OFFSET 0.000000 0.000000 0.000000
					}
				}
			}
		}
	}
}
MOTION
Frames: 7
Frame Time: 0.016667
-2688.432617 845.111389 1143.548950 5.075951 -5.512170 -1.686678 -1.125171 -1.228214 1.735832 -1.078640 0.166591 -0.489176 -1.085825 -0.231364 0.253081 -0.501360 0.833142 1.326576 0.000000 0.000000 0.000000 0.340468 2.128789 0.519345 -0.437340 2.259757 -1.219094 -0.016024 -0.943257 -1.134249 0.000000 0.000000 0.000000 1.958865 0.535837 1.503065 0.282162 0.238696 0.164265 0.508774 1.105777 1.541231 0.000000 0.000000 0.000000 3.755958 2.043235 2.468902 3.782425 2.526834 0.879271 3.943193 -3.285970 1.443170 0.000000 0.000000 0.000000 -3.147158 1.956478 1.357918 -3.172468 1.056546 -0.414301 -3.163473 -1.070942 -1.381694 0.000000 0.000000 0.000000 
-2688.502686 845.066956 1143.514038 5.059339 -5.513797 -1.689791 -1.124015 -1.222190 1.745701 -1.077768 0.164401 -0.491988 -1.084869 -0.228018 0.255520 -0.502797 0.850506 1.330522 0.000000 0.000000 0.000000 0.330882 2.139686 0.554574 -0.447482 2.270474 -1.251730 -0.031615 -0.891406 -1.173879 0.000000 0.000000 0.000000 1.955512 0.548043 1.467790 0.313025 0.257439 0.272692 0.546986 1.204438 1.641309 0.000000 0.000000 0.000000 3.761204 2.032070 2.475835 3.787187 2.537756 0.878191 3.947683 -3.275754 1.446140 0.000000 0.000000 0.000000 -3.142562 1.944689 1.363784 -3.166095 1.077281 -0.414465 -3.157982 -1.064428 -1.379872 0.000000 0.000000 0.000000 
-2688.580322 845.033447 1143.479980 5.040771 -5.516456 -1.692699 -1.122080 -1.217959 1.757684 -1.076038 0.163395 -0.494527 -1.083077 -0.225144 0.257419 -0.503848 0.870250 1.333444 0.000000 0.000000 0.000000 0.321374 2.150394 0.589983 -0.457023 2.280898 -1.284442 -0.044842 -0.845496 -1.205401 0.000000 0.000000 0.000000 1.951968 0.561003 1.430317 0.342763 0.276747 0.380083 0.582967 1.297532 1.735681 0.000000 0.000000 0.000000 3.767268 2.022384 2.481675 3.792809 2.547117 0.877796 3.953019 -3.265946 1.449450 0.000000 0.000000 0.000000 -3.137147 1.934007 1.368496 -3.159015 1.097652 -0.413978 -3.151716 -1.057636 -1.377712 0.000000 0.000000 0.000000 
-2688.665283 845.020081 1143.444946 5.019709 -5.520772 -1.695495 -1.120267 -1.214445 1.772952 -1.074439 0.161700 -0.497467 -1.081409 -0.222261 0.259663 -0.503371 0.893237 1.332346 0.000000 0.000000 0.000000 0.315031 2.160406 0.623427 -0.466003 2.291093 -1.317366 -0.055503 -0.804109 -1.226019 0.000000 0.000000 0.000000 1.950156 0.575813 1.390228 0.371153 0.297331 0.484498 0.616492 1.383371 1.825006 0.000000 0.000000 0.000000 3.773902 2.015985 2.484708 3.799017 2.552778 0.880828 3.959246 -3.257803 1.452992 0.000000 0.000000 0.000000 -3.130800 1.925737 1.371186 -3.151257 1.116947 -0.412042 -3.144652 -1.051789 -1.375046 0.000000 0.000000 0.000000 
-2688.758057 845.017578 1143.411011 4.996747 -5.526402 -1.697883 -1.118816 -1.212473 1.789395 -1.073129 0.161838 -0.499345 -1.080077 -0.220657 0.261188 -0.502177 0.919139 1.329358 0.000000 0.000000 0.000000 0.312512 2.169887 0.657263 -0.474484 2.301333 -1.350708 -0.063811 -0.768393 -1.238304 0.000000 0.000000 0.000000 1.952058 0.591812 1.348174 0.398440 0.318219 0.587661 0.647907 1.464009 1.908745 0.000000 0.000000 0.000000 3.781188 2.011403 2.486414 3.805923 2.556830 0.884522 3.966161 -3.250050 1.456804 0.000000 0.000000 0.000000 -3.123786 1.918655 1.372478 -3.142930 1.136291 -0.409549 -3.136983 -1.045845 -1.372101 0.000000 0.000000 0.000000 
-2688.863770 845.014099 1143.375977 4.974696 -5.532341 -1.699183 -1.116019 -1.209248 1.806954 -1.070523 0.160723 -0.503311 -1.077424 -0.218527 0.264120 -0.500691 0.944272 1.325591 0.000000 0.000000 0.000000 0.305415 2.178501 0.691840 -0.481863 2.309684 -1.382402 -0.069938 -0.740925 -1.246157 0.000000 0.000000 0.000000 1.951720 0.607190 1.305995 0.423434 0.338438 0.685211 0.675791 1.536616 1.982061 0.000000 0.000000 0.000000 3.788249 2.006139 2.487933 3.812601 2.561776 0.886372 3.972630 -3.241505 1.460494 0.000000 0.000000 0.000000 -3.117101 1.910466 1.373096 -3.134810 1.156587 -0.408326 -3.129662 -1.039259 -1.369401 0.000000 0.000000 0.000000 
-2688.981201 845.000671 1143.342041 4.954255 -5.538677 -1.698499 -1.112866 -1.205574 1.822238 -1.067574 0.159711 -0.506126 -1.074417 -0.215831 0.266169 -0.499546 0.966431 1.322722 0.000000 0.000000 0.000000 0.296928 2.185903 0.730459 -0.488152 2.316347 -1.412404 -0.074158 -0.723719 -1.253459 0.000000 0.000000 0.000000 1.953233 0.621980 1.265155 0.445934 0.357251 0.777606 0.699766 1.600489 2.043585 0.000000 0.000000 0.000000 3.794863 1.999796 2.490131 3.818900 2.568781 0.883731 3.978175 -3.231148 1.463951 0.000000 0.000000 0.000000 -3.111096 1.900745 1.373549 -3.127149 1.178349 -0.410382 -3.123148 -1.031513 -1.367232 0.000000 0.000000 0.000000 
